<svg width="1200" height="760" viewBox="0 0 1200 760" fill="none" xmlns="http://www.w3.org/2000/svg">
  <defs>
    <linearGradient id="bg" x1="0" y1="0" x2="1200" y2="760" gradientUnits="userSpaceOnUse">
      <stop stop-color="#0F172A" />
      <stop offset="1" stop-color="#1E293B" />
    </linearGradient>
    <linearGradient id="panel" x1="0" y1="0" x2="1" y2="1">
      <stop stop-color="#0EA5E9" stop-opacity="0.16" />
      <stop offset="1" stop-color="#22D3EE" stop-opacity="0.08" />
    </linearGradient>
  </defs>
  <rect width="1200" height="760" rx="22" fill="url(#bg)" />
  <rect x="24" y="24" width="1152" height="712" rx="18" fill="#0B1220" stroke="#334155" />

  <rect x="56" y="64" width="160" height="14" rx="7" fill="#64748B" />
  <rect x="56" y="92" width="420" height="28" rx="10" fill="#E2E8F0" fill-opacity="0.15" />

  <rect x="56" y="150" width="260" height="130" rx="14" fill="url(#panel)" stroke="#0EA5E9" stroke-opacity="0.4" />
  <rect x="336" y="150" width="260" height="130" rx="14" fill="url(#panel)" stroke="#0EA5E9" stroke-opacity="0.4" />
  <rect x="616" y="150" width="260" height="130" rx="14" fill="url(#panel)" stroke="#0EA5E9" stroke-opacity="0.4" />
  <rect x="896" y="150" width="248" height="130" rx="14" fill="url(#panel)" stroke="#0EA5E9" stroke-opacity="0.4" />

  <rect x="56" y="312" width="720" height="384" rx="16" fill="#111C30" stroke="#334155" />
  <rect x="804" y="312" width="340" height="384" rx="16" fill="#111C30" stroke="#334155" />

  <polyline points="96,618 170,560 250,575 335,505 415,530 500,450 580,470 670,390 740,410" stroke="#22D3EE" stroke-width="6" fill="none" stroke-linecap="round" stroke-linejoin="round" />
  <polyline points="96,648 180,600 260,620 345,565 430,570 510,525 590,545 670,500 740,515" stroke="#38BDF8" stroke-width="4" fill="none" stroke-linecap="round" stroke-linejoin="round" opacity="0.8" />

  <rect x="838" y="356" width="272" height="16" rx="8" fill="#E2E8F0" fill-opacity="0.2" />
  <rect x="838" y="386" width="220" height="12" rx="6" fill="#94A3B8" fill-opacity="0.4" />
  <rect x="838" y="420" width="272" height="52" rx="10" fill="#0F172A" stroke="#334155" />
  <rect x="838" y="484" width="272" height="52" rx="10" fill="#0F172A" stroke="#334155" />
  <rect x="838" y="548" width="272" height="52" rx="10" fill="#0F172A" stroke="#334155" />

  <text x="56" y="726" fill="#94A3B8" font-family="Segoe UI, Arial, sans-serif" font-size="28" font-weight="600">
    Launches Dashboard Mockup
  </text>
</svg>
