<svg width="1200" height="760" viewBox="0 0 1200 760" fill="none" xmlns="http://www.w3.org/2000/svg">
  <defs>
    <linearGradient id="bg" x1="0" y1="0" x2="1200" y2="760" gradientUnits="userSpaceOnUse">
      <stop stop-color="#0F172A" />
      <stop offset="1" stop-color="#1E293B" />
    </linearGradient>
    <linearGradient id="panel" x1="0" y1="0" x2="1" y2="1">
      <stop stop-color="#38BDF8" stop-opacity="0.25" />
      <stop offset="1" stop-color="#0EA5E9" stop-opacity="0.08" />
    </linearGradient>
  </defs>
  <rect width="1200" height="760" rx="22" fill="url(#bg)" />
  <rect x="24" y="24" width="1152" height="712" rx="18" fill="#0B1220" stroke="#334155" />

  <rect x="56" y="64" width="240" height="26" rx="10" fill="#E2E8F0" fill-opacity="0.16" />
  <rect x="56" y="102" width="520" height="14" rx="7" fill="#64748B" />

  <rect x="56" y="150" width="320" height="546" rx="16" fill="#111C30" stroke="#334155" />
  <rect x="396" y="150" width="748" height="546" rx="16" fill="#111C30" stroke="#334155" />

  <rect x="84" y="188" width="264" height="40" rx="10" fill="#0F172A" stroke="#334155" />
  <rect x="84" y="240" width="264" height="40" rx="10" fill="url(#panel)" stroke="#38BDF8" stroke-opacity="0.5" />
  <rect x="84" y="292" width="264" height="40" rx="10" fill="#0F172A" stroke="#334155" />
  <rect x="84" y="344" width="264" height="40" rx="10" fill="#0F172A" stroke="#334155" />

  <rect x="432" y="190" width="676" height="190" rx="14" fill="#0F172A" stroke="#334155" />
  <rect x="432" y="402" width="676" height="126" rx="14" fill="url(#panel)" stroke="#38BDF8" stroke-opacity="0.4" />
  <rect x="432" y="544" width="676" height="126" rx="14" fill="#0F172A" stroke="#334155" />

  <rect x="468" y="230" width="240" height="14" rx="7" fill="#E2E8F0" fill-opacity="0.26" />
  <rect x="468" y="258" width="604" height="12" rx="6" fill="#94A3B8" fill-opacity="0.42" />
  <rect x="468" y="282" width="570" height="12" rx="6" fill="#94A3B8" fill-opacity="0.36" />

  <rect x="468" y="438" width="170" height="44" rx="10" fill="#0B1220" stroke="#0EA5E9" />
  <rect x="656" y="438" width="170" height="44" rx="10" fill="#0B1220" stroke="#0EA5E9" />
  <rect x="844" y="438" width="170" height="44" rx="10" fill="#0B1220" stroke="#0EA5E9" />

  <rect x="468" y="578" width="312" height="52" rx="12" fill="#0284C7" />
  <rect x="796" y="578" width="200" height="52" rx="12" fill="#0F172A" stroke="#475569" />

  <text x="56" y="726" fill="#94A3B8" font-family="Segoe UI, Arial, sans-serif" font-size="28" font-weight="600">
    Settings & Integrations Mockup
  </text>
</svg>
